<?xml version="1.0" encoding="UTF-8"?>
<svg width="1200pt" height="1200pt" version="1.1" viewBox="0 0 1200 1200" xmlns="http://www.w3.org/2000/svg">
 <path d="m113.53 315.42-14.672-89.062c-2.1094-13.031 6.75-25.359 19.781-27.469l974.34-160.64c13.031-2.1094 25.359 6.75 27.469 19.781l22.781 138.28c2.1094 13.031-6.75 25.359-19.781 27.469l-908.9 149.86c3.9375 10.266 6.0469 21.375 6.0469 33 0 5.2031-0.42188 10.266-1.2656 15.234h920.63c13.266 0 24 10.734 24 24v226.78c0 13.266-10.734 24-24 24s-24-10.734-24-24v-62.672h-939.47v504.14h939.47v-225.61c0-13.266 10.734-24 24-24s24 10.734 24 24v249.61c0 13.266-10.734 24-24 24h-987.52c-13.266 0-24-10.734-24-24v-639.14h-0.1875c-25.453 0-48.562-10.359-65.25-27.047l-1.3594-1.4531c-15.938-16.641-25.688-39.141-25.688-63.797 0-25.5 10.312-48.562 27.047-65.297 13.406-13.406 30.938-22.734 50.484-25.875zm581.29 667.45c-11.062 7.2656-25.969 4.125-33.188-6.9375-7.2656-11.062-4.125-25.969 6.9375-33.188l74.812-49.031c3.3281-2.3906 6.0469-5.2969 8.1094-8.4375 3.4219-5.25 5.2031-11.578 5.2031-17.953 0-6.4219-1.7344-12.703-5.2031-17.953-2.2969-3.5156-5.4375-6.7031-9.3281-9.2344l-166.26-109.08c-5.25-3.1406-10.969-4.5938-16.594-4.5938-5.5312 0-10.922 1.4062-15.562 3.9375s-8.7656 6.1875-11.766 10.781c-3.2344 4.9219-5.2031 11.062-5.2031 17.906v216.56c0 6.8906 1.9219 12.984 5.1562 17.906 3 4.5469 7.0781 8.25 11.766 10.781s10.078 3.9375 15.609 3.9375c5.9531 0 12.141-1.7344 17.859-5.4375l2.7188-1.7812c11.062-7.2656 25.969-4.125 33.188 6.9375 7.2656 11.062 4.125 25.969-6.9375 33.188l-2.7188 1.7812c-13.969 9.1875-29.25 13.359-44.109 13.359-13.406 0-26.578-3.4688-38.25-9.75-11.672-6.3281-21.844-15.422-29.203-26.719-8.1562-12.469-13.031-27.469-13.031-44.156v-216.56c0-16.688 4.9219-31.734 13.078-44.156 7.3594-11.25 17.531-20.391 29.203-26.719 11.672-6.2812 24.797-9.75 38.25-9.75 14.109 0 28.594 3.7969 42.141 12.188l166.92 109.45c9.5625 6.375 17.25 14.25 23.062 23.062 8.8594 13.453 13.266 28.922 13.266 44.203 0 15.328-4.4062 30.75-13.266 44.203-5.3906 8.2031-12.422 15.609-21.094 21.656l-75.516 49.688zm-531.84-661.87c6.3281 2.5781 12.281 5.8125 17.859 9.6562l72.656-11.953-76.734-80.859-26.766 4.4062zm32.531 148.87-1.9219 2.0156c-5.1094 5.1094-10.875 9.6562-17.062 13.453v76.594h89.578l-62.484-92.062zm-35.859-94.641c-8.0156-8.0156-19.078-12.984-31.359-12.984-12.234 0-23.344 4.9688-31.359 12.984s-12.984 19.125-12.984 31.359c0 11.812 4.5469 22.5 11.953 30.422l0.98438 0.9375c8.0156 8.0156 19.078 12.984 31.359 12.984 12.234 0 23.344-4.9688 31.359-12.984s12.984-19.078 12.984-31.359-4.9688-23.344-12.984-31.359zm164.21 186.71h69.75l-62.484-92.062h-69.703l62.484 92.062zm127.5 0h69.703l-62.484-92.062h-69.703zm127.45 0h69.75l-62.484-92.062h-69.75zm127.55 0h69.75l-62.484-92.062h-69.75zm127.5 0h69.703l-62.484-92.062h-69.703zm127.45 0h69.75l-62.484-92.062h-69.75zm127.5 0h27.141v-92.062h-89.625zm27.141 216.74c0-13.266 10.734-24 24-24s24 10.734 24 24v3.7031c0 13.266-10.734 24-24 24s-24-10.734-24-24zm-882.14-550.26 76.734 80.859 68.719-11.344-76.781-80.812-68.719 11.344zm754.78-124.45 76.734 80.859 26.719-4.4062-15-91.031zm19.641 90.234-76.734-80.859-68.719 11.344 76.734 80.812 68.719-11.344zm-125.81 20.719-76.734-80.812-68.672 11.344 76.734 80.812zm-125.76 20.719-76.734-80.812-68.719 11.344 76.781 80.859 68.719-11.344zm-125.76 20.766-76.781-80.859-68.719 11.344 76.781 80.859zm-125.81 20.719-76.781-80.812-68.672 11.297 76.781 80.859z" fill="#6266f1"/>
</svg>
