<?xml version="1.0" encoding="UTF-8"?>
<svg height="1200pt" viewBox="0 0 1200 1200" width="1200pt" xmlns="http://www.w3.org/2000/svg" transform="rotate(90 600 600)"><g fill="#edf2ff"><path d="m261.6 1019.2c-55.562-141-42-329.28 110.4-404.4 70.801-35.039 163.68-26.879 222.6 27.84 45.719 42.48 48 115.8-18 136.68-47.027 12.961-97.422 2.3672-135.24-28.441-142.92-114.84-17.281-303.36 106.92-366.84 144-73.801 317.64-66.961 459.84 6 20.641 10.559 38.879-20.52 18.238-31.078-154.2-79.078-340.68-86.039-496.32-6-126.84 65.039-231.72 211.08-166.32 355.92 13.953 30.867 35.914 57.434 63.598 76.953s60.086 31.273 93.844 34.047c54.719 4.5586 124.56-16.801 144-74.16 22.68-65.52-35.281-129.96-88.559-159.36-29.703-16.043-62.457-25.641-96.121-28.16-33.66-2.5234-67.48 2.082-99.242 13.52-186.84 67.922-219.36 292.32-154.32 457.08 8.3984 21.238 43.199 12 34.68-9.6016z"/><path d="m897.96 251.04c47.238 41.664 91.992 86.062 134.04 132.96l3.7188-28.199c-66.008 34.047-128.89 73.844-187.92 118.92-18.121 13.922 0 45.238 18.238 31.078v.003906c58.969-45.102 121.82-84.898 187.8-118.92 4.7695-2.8633 7.9727-7.7461 8.6953-13.262.72266-5.5156-1.1055-11.059-4.9766-15.059-41.891-46.883-86.488-91.277-133.56-132.96-17.281-15.238-42.961 10.199-25.441 25.441z"/></g></svg>