<?xml version="1.0" encoding="UTF-8"?>
<svg width="1200pt" height="1200pt" version="1.1" viewBox="0 0 1200 1200" xmlns="http://www.w3.org/2000/svg">
 <path d="m498.37 455.06h-299.81c-10.125 0-18.188-8.0625-18.188-18.188s8.0625-18.188 18.188-18.188h299.81c10.125 0 18.188 8.0625 18.188 18.188s-8.25 18.188-18.188 18.188z" fill="#3b3946"/>
 <path d="m498.37 582h-299.81c-10.125 0-18.188-8.0625-18.188-18.188s8.0625-18.188 18.188-18.188h299.81c10.125 0 18.188 8.0625 18.188 18.188s-8.25 18.188-18.188 18.188z" fill="#3b3946"/>
 <path d="m498.37 708.74h-299.81c-10.125 0-18.188-8.0625-18.188-18.188s8.0625-18.188 18.188-18.188h299.81c10.125 0 18.188 8.0625 18.188 18.188s-8.25 18.188-18.188 18.188z" fill="#3b3946"/>
 <path d="m600.94 966.56c-2.4375 0-4.875-0.5625-7.125-1.5l-101.44-42.562h-398.63c-10.125 0-18.188-8.0625-18.188-18.188v-725.26c0-10.125 8.0625-18.188 18.188-18.188h402.37c4.6875 0 9.375 1.875 12.75 5.25l92.062 90.375 92.25-90.375c3.375-3.375 7.875-5.25 12.75-5.25h402.37c10.125 0 18.188 8.0625 18.188 18.188v725.44c0 10.125-8.0625 18.188-18.188 18.188h-398.63l-101.62 42.562c-2.4375 0.9375-4.6875 1.3125-7.125 1.3125zm-489-80.25h384.19c2.4375 0 4.875 0.5625 7.125 1.5l97.688 41.062 98.062-41.062c2.25-0.9375 4.6875-1.5 6.9375-1.5h384.19v-689.06h-376.87l-99.75 97.688c-7.125 6.9375-18.375 6.9375-25.5 0l-99.375-97.688h-376.69z" fill="#3b3946"/>
 <path d="m1003.7 455.06h-299.81c-10.125 0-18.188-8.0625-18.188-18.188s8.0625-18.188 18.188-18.188h299.81c10.125 0 18.188 8.0625 18.188 18.188s-8.25 18.188-18.188 18.188z" fill="#3b3946"/>
 <path d="m1003.7 582h-299.81c-10.125 0-18.188-8.0625-18.188-18.188s8.0625-18.188 18.188-18.188h299.81c10.125 0 18.188 8.0625 18.188 18.188s-8.25 18.188-18.188 18.188z" fill="#3b3946"/>
 <path d="m1003.7 708.74h-299.81c-10.125 0-18.188-8.0625-18.188-18.188s8.0625-18.188 18.188-18.188h299.81c10.125 0 18.188 8.0625 18.188 18.188s-8.25 18.188-18.188 18.188z" fill="#3b3946"/>
 <path d="m601.31 1039.1c-31.688 0-62.25-10.125-92.062-30.562h-491.06c-10.125 0-18.188-8.0625-18.188-18v-750.74c0-10.125 8.0625-18.188 18.188-18.188s18.188 8.0625 18.188 18.188v732.37h478.69c3.9375 0 7.5 1.125 10.688 3.5625 49.5 36 101.06 35.812 157.69-0.5625 3-1.875 6.375-2.8125 9.75-2.8125h470.26v-721.87c0-10.125 8.0625-18.188 18.188-18.188s18.375 8.0625 18.375 18v740.06c0 10.125-8.0625 18.188-18.188 18.188h-483.19c-33.188 20.438-65.625 30.562-97.312 30.562z" fill="#3b3946"/>
 <path d="m600.94 966.56c-10.125 0-18.188-8.0625-18.188-18.188v-666.56c0-10.125 8.0625-18.188 18.188-18.188s18.188 8.0625 18.188 18.188v666.56c0 10.125-8.0625 18.188-18.188 18.188z" fill="#3b3946"/>
</svg>
