<?xml version="1.0" encoding="UTF-8"?>
<svg width="1200pt" height="1200pt" version="1.1" viewBox="0 0 1200 1200" xmlns="http://www.w3.org/2000/svg">
 <path d="m1199.7 571.12c-1.5039-7.5195-8.1211-12.633-15.945-12.031-11.73 0.90234-23.465 0.90234-35.195 0-22.262-1.8047-37.602-6.918-58.66-13.539l-11.43-3.6094c-28.277-8.7227-40.914-11.73-50.238-13.539-1.2031 0-2.4062-0.60156-3.6094-0.90234 21.961-9.625 46.328-25.27 65.582-50.84 14.742-19.555 24.668-42.117 29.781-67.086l3.9102-19.555-19.855 1.8047c-11.73 0.90234-23.465 0.90234-35.195 0-22.262-1.8047-37.602-6.918-58.961-13.539l-11.43-3.6094c-11.43-3.6094-23.164-6.6172-34.895-9.625 6.918-5.7148 13.539-12.938 18.352-22.562 8.4219-15.945 9.625-31.586 8.7227-42.117l-1.2031-19.254-18.352 5.7148c-18.352 5.7148-33.391 5.7148-43.32-0.30078-5.1133-3.0078-13.84-15.645-25.57-33.09l-24.668-36.098c-2.707-4.2109-3.0078-4.2109-3.3086-4.5117-24.668-29.48-75.508-52.344-124.84-38.809-4.2109 1.2031-7.8203 2.707-11.73 4.2109-43.02-46.93-111.91-61.066-165.45-31.285-12.938 7.2188-24.066 16.547-33.391 27.375-23.465 1.8047-61.066 9.0234-95.965 37-56.855 45.426-64.078 110.4-64.68 129.36l30.082 1.2031c0.60156-11.129 5.4141-68.891 53.547-107.39 18.652-15.043 38.508-22.562 55.652-26.773-9.625 21.961-14.141 46.629-11.73 71.898l30.082-3.0078c-4.2109-43.32 15.945-84.23 51.441-103.79 39.41-21.66 90.25-12.633 123.94 20.156-15.645 11.73-25.871 25.27-31.586 33.992-26.172 17.449-52.945 46.93-68.891 69.793-31.285-3.0078-63.172 0-92.957 9.9258-29.18 9.3242-55.652 24.367-78.816 44.223-6.3164 5.4141-6.918 15.043-1.5039 21.359 3.0078 3.3086 7.2188 5.1133 11.43 5.1133 3.6094 0 6.918-1.2031 9.9258-3.6094 19.855-17.148 43.32-30.383 68.289-38.203 21.359-6.918 43.922-9.9258 66.484-9.3242-10.227 19.855-18.051 40.914-23.164 63.473l29.48 6.6172c6.6172-28.879 17.75-55.652 33.691-79.117 27.977-41.516 65.883-70.395 79.117-74.305 0.60156 10.227-1.8047 33.992-4.2109 58.961-5.1133 49.938-10.227 57.758-13.84 63.172-8.1211 12.031-19.855 21.66-34.895 28.578l12.332 27.375c20.457-9.3242 36.398-22.562 47.531-39.41 5.7148-8.7227 9.9258-19.254 13.84-40.613 9.3242 3.3086 18.352 7.5195 26.473 12.633 28.578 18.352 43.02 43.922 48.734 53.848 53.246 93.559 161.84 253.3 196.44 300.83 39.109 53.547 86.035 103.48 139.88 148.61-33.691 55.652-117.02 166.66-268.64 217.2-123.94 41.215-234.34 22.562-295.11 5.1133 2.707-43.32 9.3242-86.637 20.457-128.75 6.0156-22.562 11.73-40.312 16.848-55.652 10.227-30.383 17.449-52.344 15.645-83.328-2.707-48.434-27.074-96.266-72.5-142.29l-11.43-11.73-10.527 12.633c-13.539 15.945-29.18 29.48-46.328 40.012-17.449 10.527-29.48 13.84-47.832 18.953-6.6172 1.8047-14.141 3.9102-22.562 6.6172-37.301 11.43-55.953 21.961-72.5 31.285-16.246 9.0234-29.18 16.246-57.156 22.262-23.465 4.8125-55.953 8.4219-78.215-2.4062-19.555-9.625-30.082-18.953-30.984-27.676-0.90234-6.6172 5.4141-12.031 22.262-25.57 15.945-12.633 37.602-30.082 57.758-58.961 4.8125-7.2188 8.4219-12.332 44.523-99.574 13.238-32.188 24.367-59.262 32.488-79.719 37.602-16.848 61.367-55.352 58.059-96.566-3.3086-44.523-36.398-80.922-80.32-89.043h-0.30078c-7.2188-28.578-31.887-54.449-74.004-77.312-11.129-20.457-32.789-37.602-65.281-50.84-0.90234-0.30078-1.8047-0.30078-3.0078-0.60156-9.3242-21.359-30.383-39.41-64.379-52.945-9.6289-27.371-40.312-45.418-93.859-56.551-5.1133-0.60156-10.531 0.90234-14.141 4.8125-3.3086 3.6133-4.8125 9.0273-3.3086 14.141 6.0156 22.562 15.043 44.523 26.473 65.281 12.332 21.961 27.074 42.418 44.523 60.465 5.4141 27.676 27.676 52.645 65.582 74.004 0.60156 0 1.2031 0 1.5039 0.30078 8.7227 26.172 32.188 50.238 70.996 72.199 0.60156 0.30078 1.5039 0 2.1055 0.60156 10.227 25.57 33.391 49.637 69.793 71.297 0.60156 0.30078 1.5039 0.30078 2.1055 0.60156 6.0156 16.246 15.645 32.789 28.578 49.336-8.1211 20.156-18.953 46.328-31.586 77.613-34.895 84.531-38.203 89.344-41.516 93.859-17.449 25.27-36.398 40.613-51.742 52.645-19.254 15.645-36.098 28.879-33.391 52.645 3.6094 29.48 35.496 45.426 47.832 51.141 24.066 11.73 56.855 13.238 97.469 4.8125 32.488-6.918 48.734-15.945 65.582-25.27 15.344-8.4219 32.488-18.051 66.785-28.879 8.1211-2.4062 15.043-4.5117 21.66-6.3164 19.254-5.4141 34.293-9.625 55.352-21.961 15.344-9.3242 29.781-20.457 42.719-33.691 33.09 37 50.84 74.305 52.945 111.3 1.5039 25.27-4.8125 43.922-14.141 72.199-5.4141 15.945-11.43 34.293-17.449 57.758-12.633 47.832-19.855 97.168-21.961 146.5l-0.60156 11.43 11.129 3.6094c35.496 11.129 92.355 24.668 160.94 24.668 49.637 0 105.29-6.918 163.65-26.473 172.07-57.457 261.42-188.32 291.5-241.86l6.3164-11.129-9.9258-8.1211c-42.719-34.895-80.922-72.801-114.61-113.41 19.555-11.129 35.496-25.27 47.531-42.117 9.625-13.84 14.141-25.871 18.352-36.398 3.9102-10.227 7.2188-19.254 15.344-29.18 11.43-14.141 27.977-24.969 49.336-31.887 7.2188-2.4062 11.73-9.9258 10.227-17.148zm-1120-407.02c-1.2031 3.3086-2.707 6.918-4.2109 10.527-8.1211-10.527-15.645-21.961-22.262-33.691-6.0156-10.828-11.129-21.961-15.645-33.391 27.074 8.1211 43.621 18.953 46.93 31.285 2.1055 7.2188-0.60156 13.84-5.1133 25.27zm21.059 43.32c-1.5039-11.43 2.4062-20.758 6.918-31.586 2.1055-4.8125 3.9102-9.9258 5.4141-15.344 21.359 10.527 34.895 22.562 38.203 35.797 2.707 9.9258-0.60156 18.652-6.0156 31.586-3.3086 7.8203-6.6172 16.547-8.7227 26.473-21.359-14.742-33.992-30.383-35.797-46.629zm64.68 65.281c-1.5039-12.031 2.707-21.961 7.5195-33.391 3.3086-7.5195 6.3164-15.945 8.1211-24.969 23.164 11.73 37.602 24.969 41.215 40.312 3.0078 12.031-1.2031 22.562-6.3164 35.797-3.9102 10.227-8.1211 21.359-9.625 34.594-24.969-17.148-39.109-34.594-41.215-52.344zm70.996 65.883c-1.5039-13.539 2.707-24.668 7.8203-37.301 3.6094-9.0234 7.2188-18.953 8.4219-29.781 23.164 16.246 36.098 32.789 37.902 49.938 1.2031 9.9258-1.5039 17.148-5.4141 27.375-3.6094 9.9258-7.8203 21.359-9.0234 37 0 3.0078 0.30078 6.0156 0.30078 9.0234-24.367-18.352-38.203-37.301-40.312-56.254zm77.312 20.457c2.4062-6.3164 4.5117-12.633 6.0156-19.555 27.676 7.5195 47.832 31.285 49.938 60.164 2.1055 26.473-12.031 51.742-34.895 64.379-20.156-26.473-30.082-52.043-28.277-76.109 0.90234-11.43 3.9102-19.855 7.2188-28.879zm462.67-31.586c-11.73-7.5195-24.969-13.238-38.508-17.449 0-2.1055 0.60156-3.9102 0.60156-6.3164 5.7148-58.359 7.8203-78.215-6.918-87.539 0 0-0.60156 0-0.60156-0.30078 7.5195-5.7148 16.246-10.828 27.074-13.84 36.699-9.9258 75.809 7.5195 93.559 28.879l26.473 38.809c16.246 23.766 24.367 35.797 35.195 42.117 9.625 5.7148 24.668 10.828 46.027 8.1211-0.90234 2.707-1.8047 5.1133-3.3086 7.8203-9.0234 17.148-26.172 23.465-33.391 25.57-70.094-19.555-96.867-26.773-120.33-9.0234-0.60156 0.60156-1.2031 1.2031-2.1055 1.8047-6.918-6.3164-14.742-12.938-23.766-18.652zm43.621 41.215 0.30078-0.30078c11.129-8.7227 32.488-3.3086 98.07 15.043 8.7227 2.4062 17.449 4.8125 26.172 6.918 15.043 3.9102 30.082 7.8203 45.125 12.633l11.43 3.6094c22.262 7.2188 40.012 12.938 65.281 15.043 6.3164 0.60156 12.633 0.90234 19.254 0.90234-4.5117 12.938-10.828 25.27-19.254 36.098-27.676 36.699-67.688 48.434-89.648 52.043-4.5117-1.5039-9.3242-3.0078-15.645-4.2109-17.75-3.3086-36.398-2.707-55.051 0.90234-26.773-41.516-52.344-82.727-71.297-115.82-2.707-4.8125-7.5195-13.238-14.742-22.863zm296.92 232.84c-10.828 13.539-15.344 25.57-19.855 37.301-3.6094 9.9258-7.2188 18.953-14.742 29.781-9.9258 14.441-24.066 26.172-41.516 35.496-3.6094-4.8125-7.5195-9.3242-11.129-14.141-19.555-26.773-62.27-89.043-105.59-154.93 10.828-0.90234 21.359-0.90234 31.285 0.90234 6.6172 1.2031 11.43 3.0078 17.148 5.1133 0 0 0.60156 0.30078 0.90234 0.30078 1.5039 0.60156 2.707 1.2031 4.8125 1.8047 5.1133 2.1055 11.129 4.5117 18.953 7.5195 10.828 3.9102 16.848 5.1133 24.668 6.918 8.7227 1.8047 20.457 4.5117 47.531 12.938l11.43 3.6094c17.449 5.7148 31.887 10.227 49.637 12.938-5.1133 4.5117-9.625 9.0234-13.539 14.141z" fill="#3b3946"/>
 <path d="m473.2 571.12c20.156 0 36.699-16.547 36.699-36.699 0-20.156-16.547-36.699-36.699-36.699-20.156 0-36.398 16.547-36.398 36.699 0 20.156 16.246 36.699 36.398 36.699zm0-43.02c3.6094 0 6.6172 3.0078 6.6172 6.6172 0 7.2188-12.938 7.2188-12.938 0 0-3.6094 3.0078-6.6172 6.3164-6.6172z" fill="#3b3946"/>
</svg>
