<?xml version="1.0" encoding="UTF-8"?>
<svg width="1200pt" height="1200pt" version="1.1" viewBox="0 0 1200 1200" xmlns="http://www.w3.org/2000/svg">
 <path d="m1132.4 883.12-152.64-128.89c4.9492-9.2266 8.082-19.426 8.9805-30.188 1.7422-20.738-4.668-40.895-18.039-56.68-9.7891-11.645-22.52-19.969-36.805-24.262 21.207-28.352 20.961-68.645-2.7734-96.844-10.312-12.242-23.887-20.812-39.113-24.883 16.969-27.789 15.242-64.52-6.8984-90.824-12.262-14.512-29.137-23.867-47.887-26.645 8.5859-25.051 4.2383-53.887-14.023-75.543-13.332-15.844-32.137-25.52-52.895-27.281-20.867-1.8203-40.93 4.6328-56.773 17.98l-2.8867 2.4375-87.488-40.82c-45.789-23.773-85.875-5.082-105.26 23.926-6.4492 9.6367-10.406 20.043-12.469 30.543l-19.07-16.105c-32.832-27.637-82.012-23.418-109.67 9.3203-18.262 21.656-22.613 50.492-14.008 75.543-18.75 2.7734-35.586 12.113-47.887 26.664-13.352 15.844-19.742 35.98-18 56.719 1.0508 12.301 4.8555 23.887 11.082 34.086-14.758 3.9766-28.52 12.32-39.113 24.863-23.758 28.199-23.98 68.492-2.7578 96.844-13.895 4.2188-26.773 12.32-36.805 24.227-21.133 25.012-23.57 59.586-8.9805 86.906l-152.72 128.89c-7.9297 6.6758-8.9258 18.508-2.25 26.418 3.7109 4.3867 9 6.6562 14.363 6.6562 4.2734 0 8.5508-1.4453 12.074-4.4062l153.24-129.32 61.461 51.824c14.117 11.906 31.648 18.281 49.969 18.281 2.2305 0 4.4805-0.11328 6.7305-0.30078 20.719-1.7617 39.508-11.438 52.801-27.242 13.387-15.805 19.801-35.926 18.055-56.68-0.91797-10.988-4.1797-21.32-9.2617-30.695 15.488-3.75 30.02-12.094 41.043-25.164 15.188-18.02 20.418-40.93 16.914-62.551h0.054687c21.863 0 43.406-9.0742 58.164-26.492 13.781-13.855 20.906-32.719 20.023-53.082-0.039062-0.67578-0.26172-1.3125-0.30078-1.9688 3.0742 0.375 6.1133 0.88281 9.2422 0.88281 2.2305 0 4.5-0.09375 6.75-0.30078 20.758-1.7617 39.523-11.457 51.75-26.082 13.855-13.781 21.02-32.586 20.176-52.969-0.76953-18.523-8.2695-35.945-20.457-49.633l109.63-92.57c8.1953-6.8828 18.582-10.273 29.418-9.2617 10.781 0.89844 20.512 5.9062 27.395 14.082 14.305 16.969 12.133 42.488-4.8359 56.812l-14.176 12-0.019531 0.019532c-7.8945 6.6758-8.8867 18.508-2.1758 26.418 6.6562 7.8945 18.488 8.8672 26.398 2.1953l0.09375-0.09375c8.1367-6.8047 18.582-10.031 29.195-9.207 10.801 0.89844 20.57 5.8867 27.449 14.062 14.324 17.008 12.148 42.488-4.8359 56.812l-30.074 25.445s-0.019531 0.019531-0.039062 0.019531c-7.8945 6.6953-8.8867 18.523-2.1953 26.418 6.6758 7.9141 18.508 8.9062 26.418 2.2109h0.019531c8.1758-6.9375 18.883-10.145 29.344-9.3203 10.762 0.91797 20.477 5.9062 27.355 14.082 14.305 16.988 12.133 42.488-4.8203 56.812l-36.488 30.789-0.019531 0.019531c-7.9141 6.6758-8.9258 18.508-2.25 26.418 6.6758 7.9141 18.488 8.9453 26.418 2.25l0.054687-0.039063c8.1758-6.8828 18.488-10.086 29.324-9.2617 10.762 0.91797 20.477 5.9062 27.375 14.117 6.918 8.1953 10.219 18.617 9.3203 29.363-0.91797 10.762-5.9062 20.512-14.082 27.414l-170.41 143.85c-69.543 58.707-126.9 52.5-213.05 35.363-5.625-1.1797-11.383 0.375-15.77 4.0703l-256.59 216.6c-7.9141 6.6562-8.9062 18.488-2.2109 26.418 3.6914 4.3867 8.9805 6.6562 14.324 6.6562 4.2734 0 8.5508-1.4453 12.094-4.4258l249.71-210.8c35.586 6.8633 68.156 11.645 99.617 10.48l239.48 200.38c3.543 2.9414 7.8008 4.3672 12.039 4.3672 5.3633 0 10.688-2.2891 14.398-6.7109 6.6367-7.9492 5.6055-19.762-2.3438-26.398l-214.05-179.12c28.406-8.043 56.758-23.043 86.551-48.188l164.02-138.41 153.17 129.34c3.5234 2.9805 7.8203 4.4258 12.094 4.4258 5.3438 0 10.633-2.25 14.344-6.6367 6.6602-7.9141 5.6641-19.746-2.2461-26.422zm-581.36-509.49c-14.195-11.98-11.605-33.77-1.9492-48.188 4.7617-7.125 22.949-29.008 57.523-11.137l72.488 33.824-79.145 66.824-48.75-41.137-0.13281-0.11328c-0.015626-0.019531 0-0.058593-0.035157-0.074219zm-163.76 427.16c-6.8828 8.1953-16.594 13.18-27.336 14.082-10.855 0.97656-21.207-2.3984-29.363-9.2812l-67.93-57.262c-16.969-14.398-19.125-39.883-4.7812-56.832 14.211-16.875 39.395-19.105 56.398-5.043l68.289 57.582c8.1758 6.8828 13.164 16.613 14.062 27.395 0.89453 10.777-2.4219 21.184-9.3398 29.359zm49.816-112.52c-14.324 16.969-39.789 19.145-56.773 4.8555l-41.418-34.93c-0.054687-0.039063-0.074218-0.11328-0.13281-0.16797l-0.019531-0.019531-36.469-30.77c-16.969-14.363-19.145-39.844-4.8555-56.812 6.918-8.1953 16.668-13.18 27.43-14.102 10.781-0.88281 21.207 2.3984 29.383 9.3203l0.019531 0.019531c0.039063 0.039062 0.11328 0.039062 0.14844 0.074219l77.832 65.758c16.988 14.324 19.145 39.824 4.8555 56.773zm76.199-90.223c-14.363 16.969-39.824 19.145-56.832 4.8008l-78.262-66.094c-0.019532-0.019531-0.054688-0.019531-0.074219-0.039062l-29.867-25.199c-8.1758-6.8828-13.164-16.613-14.082-27.395-0.91797-10.762 2.3984-21.227 9.2812-29.383 6.8984-8.1758 16.633-13.164 27.395-14.062 10.574-0.99219 21.094 2.3438 29.25 9.1484l0.16797 0.14844 108.17 91.273c8.9258 7.5391 14.531 19.012 15.039 30.676 0.39453 9.793-2.832 18.68-10.184 26.125zm87.527-80.551c-6.8828 8.1758-16.594 13.164-27.355 14.082-10.82 0.99219-21.188-2.3828-29.324-9.2422-0.91797-0.76953-1.7422-0.78906-2.5117-0.35547-2.8125-3.2812-5.6797-6.5625-9-9.375l-108.19-91.293c-0.074219-0.074218-0.14844-0.11328-0.22656-0.1875l-14.008-11.793c-16.969-14.344-19.145-39.844-4.8555-56.793 14.344-16.949 39.844-19.145 56.812-4.8555l25.633 21.656c0.019531 0 0.019531 0.019531 0.039062 0.039062l40.727 34.387 12.602 10.633h0.019531l54.898 46.367c8.9258 7.5195 14.512 18.992 15.02 30.695 0.38672 9.7227-2.875 18.535-10.281 26.035z" fill="#3b3946"/>
 <path d="m675.07 154.88c10.367 0 18.75-8.3828 18.75-18.75v-98.625c0-10.367-8.3828-18.75-18.75-18.75-10.367 0-18.75 8.3828-18.75 18.75v98.625c0 10.367 8.3828 18.75 18.75 18.75z" fill="#3b3946"/>
 <path d="m923.49 208.78c5.7734 0 11.457-2.6641 15.148-7.6484l58.332-79.5c6.1133-8.3438 4.3125-20.082-4.0312-26.211-8.3984-6.1484-20.102-4.293-26.211 4.0312l-58.332 79.5c-6.1133 8.3438-4.3125 20.082 4.0312 26.211 3.3398 2.4375 7.2188 3.6172 11.062 3.6172z" fill="#3b3946"/>
 <path d="m411.52 201.13c3.6562 5.0078 9.3555 7.6484 15.133 7.6484 3.8438 0 7.7266-1.1797 11.082-3.6367 8.3438-6.1133 10.145-17.852 4.0117-26.195l-58.367-79.5c-6.1133-8.3242-17.832-10.145-26.195-4.0117-8.3438 6.1133-10.145 17.852-4.0117 26.195z" fill="#3b3946"/>
</svg>
